HIERARCHY
ROOT Hips
{
	OFFSET 0.00000 0.00000 0.00000
	CHANNELS 6 Xposition Yposition Zposition Zrotation Yrotation Xrotation 
	JOINT LHipJoint
	{
		OFFSET 0 0 0
		CHANNELS 3 Zrotation Yrotation Xrotation
		JOINT LeftHip
		{
			OFFSET 1.73240 -1.89999 0.57994
			CHANNELS 3 Zrotation Yrotation Xrotation
			JOINT LeftKnee
			{
				OFFSET 2.43106 -6.67930 0.00000
				CHANNELS 3 Zrotation Yrotation Xrotation
				JOINT LeftAnkle
				{
					OFFSET 2.78854 -7.66147 0.00000
					CHANNELS 3 Zrotation Yrotation Xrotation
					JOINT LeftToe
					{
						OFFSET 0.17314 -0.47571 2.01064
						CHANNELS 3 Zrotation Yrotation Xrotation
						End Site
						{
							OFFSET 0.00000 -0.00000 1.04147
						}
					}
				}
			}
		}
	}
	JOINT RHipJoint
	{
		OFFSET 0 0 0
		CHANNELS 3 Zrotation Yrotation Xrotation
		JOINT RightHip
		{
			OFFSET -1.57078 -1.89998 0.57994
			CHANNELS 3 Zrotation Yrotation Xrotation
			JOINT RightKnee
			{
				OFFSET -2.50166 -6.87326 0.00000
				CHANNELS 3 Zrotation Yrotation Xrotation
				JOINT RightAnkle
				{
					OFFSET -2.77304 -7.61886 0.00000
					CHANNELS 3 Zrotation Yrotation Xrotation
					JOINT RightToe
					{
						OFFSET -0.23513 -0.64602 2.11039
						CHANNELS 3 Zrotation Yrotation Xrotation
						End Site
						{
							OFFSET -0.00000 -0.00000 1.10597
						}
					}
				}
			}
		}
	}
	JOINT lowerback
	{
		OFFSET 0 0 0
		CHANNELS 3 Zrotation Yrotation Xrotation
		JOINT Chest
		{
			OFFSET -0.00908 2.00015 -0.35323
			CHANNELS 3 Zrotation Yrotation Xrotation
			JOINT Chest2
			{
				OFFSET 0.05647 2.02258 0.04270
				CHANNELS 3 Zrotation Yrotation Xrotation
				JOINT lowerneck
				{
					OFFSET 0 0 0
					CHANNELS 3 Zrotation Yrotation Xrotation
					JOINT Neck
					{
						OFFSET -0.02074 1.73711 0.13117
						CHANNELS 3 Zrotation Yrotation Xrotation
						JOINT Head
						{
							OFFSET -0.02359 1.73615 -0.24320
							CHANNELS 3 Zrotation Yrotation Xrotation
							End Site
							{
								OFFSET -0.00579 1.75982 -0.09688
							}
						}
					}
				}
				JOINT LeftCollar
				{
					OFFSET 0 0 0
					CHANNELS 3 Zrotation Yrotation Xrotation
					JOINT LeftShoulder
					{
						OFFSET 3.20537 1.11432 -0.27680
CHANNELS 3 Zrotation Xrotation Yrotation
						JOINT LeftElbow
						{
OFFSET 0 -5.059230 -0.000000
CHANNELS 3 Zrotation Xrotation Yrotation
							JOINT LeftWrist
							{
OFFSET 0 -3.519960 0.000000
CHANNELS 3 Zrotation Xrotation Yrotation
								JOINT lhand
								{
									OFFSET 0 0 0
CHANNELS 3 Zrotation Xrotation Yrotation
									JOINT LFingers
									{
OFFSET 0 -0.652380 0.000000
CHANNELS 3 Zrotation Xrotation Yrotation
										End Site
										{
OFFSET 0 -0.525960 0.000000
										}
									}
								}
								JOINT LThumb
								{
OFFSET 0 0.000000 0.000000
CHANNELS 3 Zrotation Xrotation Yrotation
									End Site
									{
OFFSET 0 -0.533990 0.533990
									}
								}
							}
						}
					}
				}
				JOINT RightCollar
				{
					OFFSET 0 0 0
					CHANNELS 3 Zrotation Yrotation Xrotation
					JOINT RightShoulder
					{
						OFFSET -2.96983 1.42602 -0.37449
CHANNELS 3 Zrotation Xrotation Yrotation
						JOINT RightElbow
						{
OFFSET 0 -5.408670 0.000000
CHANNELS 3 Zrotation Xrotation Yrotation
							JOINT RightWrist
							{
OFFSET 0 -3.129640 0.000000
CHANNELS 3 Zrotation Xrotation Yrotation
								JOINT rhand
								{
									OFFSET 0 0 0
CHANNELS 3 Zrotation Xrotation Yrotation
									JOINT RFingers
									{
OFFSET 0 -0.832710 0.000000
CHANNELS 3 Zrotation Xrotation Yrotation
										End Site
										{
OFFSET 0 -0.671350 0.000000
										}
									}
								}
								JOINT RThumb
								{
OFFSET 0 0.000000 0.000000
CHANNELS 3 Zrotation Xrotation Yrotation
									End Site
									{
OFFSET 0 -0.681600 0.681600
									}
								}
							}
						}
					}
				}
			}
		}
	}
}
MOTION
Frames: 11
Frame Time: 0.008333333333333333
-2.722100 18.199500 6.683100 -177.812000 -1.716600 176.398000 0.000000 0.000000 0.000000 -20.261400 -7.120500 1.411100 1.572500 7.912200 22.447800 0.677100 2.217300 -16.501500 0.360000 -3.854400 -10.667300 0.000000 0.000000 0.000000 18.449900 5.121200 1.173100 -1.698700 -8.208100 23.347800 -0.507500 -10.569700 -21.157800 -0.048200 -1.417500 3.898400 -4.064200 1.325400 17.389400 3.839300 1.210700 -1.419000 6.277500 0.928600 -11.580900 0.230700 5.737800 -6.156600 -6.043300 7.463300 26.306100 -1.529500 2.014300 9.540700 -0.000000 0.000000 0.000000 5.051700 14.217600 -12.888300 26.896600 -38.080400 9.435300 12.805700 2.078800 -53.166300 0.000000 0.000000 0.000000 -7.125000 0.000000 0.000000 -67.121600 76.085900 53.372000 -0.000000 0.000000 0.000000 -35.390700 3.447500 -74.024900 -42.346300 -49.400200 -20.203100 -18.631500 -77.536200 -1.491800 0.000000 0.000000 0.000000 7.125000 0.000000 -0.000000 6.155800 28.385200 2.502500
-2.722827 18.198319 6.679740 -177.930972 -1.624329 176.366214 0.000000 0.000000 0.000000 -20.405074 -7.033133 1.500919 1.562782 7.888860 22.377053 0.676192 2.262527 -16.514033 0.346922 -3.784561 -10.471315 0.000000 0.000000 0.000000 18.299596 5.123925 1.130143 -1.717045 -8.249967 23.475944 -0.509407 -10.600669 -21.208022 -0.036484 -1.230869 3.384279 -4.238571 1.334663 17.399118 3.807877 1.183909 -1.385670 6.350064 0.924876 -11.548750 0.025451 5.380976 -6.807947 -6.123311 7.010754 26.866356 -1.566645 1.720413 9.846393 0.000000 0.000000 0.000000 4.943990 14.281173 -12.795938 26.804601 -37.992216 9.378539 12.827769 2.011595 -52.457919 0.000000 0.000000 0.000000 -7.125000 0.000000 0.000000 -64.370268 75.876110 50.645643 0.000000 0.000000 0.000000 -35.363364 3.418892 -73.791952 -42.250033 -49.347889 -20.130082 -18.584638 -77.408510 -1.708946 0.000000 0.000000 0.000000 7.125000 0.000000 0.000000 6.180412 28.157701 2.546002
-2.723635 18.196894 6.680951 -177.979736 -1.603244 176.311569 0.000000 0.000000 0.000000 -20.464500 -6.971155 1.552287 1.561963 7.886990 22.371288 0.677243 2.246446 -16.518239 0.346171 -3.780276 -10.459419 0.000000 0.000000 0.000000 18.235990 5.108934 1.151270 -1.725023 -8.268160 23.531514 -0.524131 -10.526409 -21.277756 -0.037912 -1.256737 3.455407 -4.338489 1.308987 17.453245 3.788046 1.121606 -1.308256 6.402055 0.896009 -11.484926 -0.295639 4.989946 -7.342962 -6.043886 6.491348 27.289464 -1.538644 1.416403 10.070696 0.000000 0.000000 0.000000 4.884118 14.248088 -12.766599 26.756441 -37.945992 9.348962 12.741833 1.812874 -51.931097 0.000000 0.000000 0.000000 -7.125000 0.000000 0.000000 -62.432276 75.660688 48.678746 0.000000 0.000000 0.000000 -35.303128 3.231094 -73.661049 -42.160215 -49.298925 -20.061963 -18.676639 -77.161876 -1.946174 0.000000 0.000000 0.000000 7.125000 0.000000 0.000000 6.097264 27.908078 2.547461
-2.724742 18.195875 6.683981 -178.035095 -1.557852 176.262324 0.000000 0.000000 0.000000 -20.540678 -6.964851 1.593897 1.565260 7.894925 22.395365 0.678080 2.281867 -16.545273 0.342895 -3.762642 -10.409975 0.000000 0.000000 0.000000 18.174817 5.140858 1.173664 -1.731110 -8.281951 23.573704 -0.531530 -10.452631 -21.276360 -0.037775 -1.254990 3.450568 -4.443872 1.290755 17.552000 3.756623 1.067336 -1.265227 6.443255 0.874674 -11.486950 -0.511948 4.530151 -7.429372 -6.120854 5.868130 27.343426 -1.597795 1.085678 10.080726 0.000000 0.000000 0.000000 4.856580 14.342809 -12.794632 26.782840 -37.971364 9.365191 12.800468 1.724489 -51.754072 0.000000 0.000000 0.000000 -7.125000 0.000000 0.000000 -61.740609 75.619391 48.018192 0.000000 0.000000 0.000000 -35.198111 3.157548 -73.462648 -42.110320 -49.271639 -20.024100 -18.799908 -76.870926 -1.734128 0.000000 0.000000 0.000000 7.125000 0.000000 0.000000 6.013081 28.129962 2.480505
-2.725163 18.195094 6.688480 -177.945437 -1.446945 176.211935 0.000000 0.000000 0.000000 -20.445330 -6.918091 1.593192 1.572764 7.912832 22.449576 0.678616 2.338796 -16.580672 0.348054 -3.790689 -10.488635 0.000000 0.000000 0.000000 18.290786 5.233580 1.212965 -1.733280 -8.286886 23.588821 -0.525887 -10.488145 -21.256696 -0.040221 -1.294601 3.559809 -4.421537 1.278318 17.643780 3.784000 1.050535 -1.226474 6.466869 0.863685 -11.493849 -0.795204 4.042512 -7.360599 -6.208914 5.208358 27.266228 -1.652738 0.739233 10.011688 0.000000 0.000000 0.000000 4.811008 14.457684 -12.825855 26.780255 -37.968825 9.363593 13.077314 1.783480 -51.449897 0.000000 0.000000 0.000000 -7.125000 0.000000 0.000000 -60.467984 75.608278 46.882959 0.000000 0.000000 0.000000 -35.104067 3.145716 -73.215189 -42.072385 -49.250890 -19.995349 -18.664502 -76.588079 -1.374925 0.000000 0.000000 0.000000 7.125000 0.000000 0.000000 6.137089 28.507478 2.476370
-2.724821 18.194043 6.693367 -177.834860 -1.353596 176.193164 0.000000 0.000000 0.000000 -20.316874 -6.894622 1.553516 1.581268 7.933183 22.511337 0.678962 2.372195 -16.601945 0.351097 -3.807160 -10.534728 0.000000 0.000000 0.000000 18.427617 5.306158 1.221552 -1.731823 -8.283560 23.578662 -0.519104 -10.517306 -21.219105 -0.047804 -1.409124 3.875374 -4.379502 1.259196 17.636305 3.822119 1.030598 -1.142350 6.489224 0.844427 -11.391142 -1.042715 3.586534 -7.456718 -6.309288 4.613561 27.224563 -1.708837 0.425872 9.992360 0.000000 0.000000 0.000000 4.760398 14.432048 -12.825279 26.752231 -37.941888 9.346379 13.229246 1.843278 -51.314249 0.000000 0.000000 0.000000 -7.125000 0.000000 0.000000 -59.883340 75.614444 46.373102 0.000000 0.000000 0.000000 -35.026041 2.961561 -73.201953 -42.039713 -49.232964 -19.970586 -18.289750 -76.096354 -1.195773 0.000000 0.000000 0.000000 7.125000 0.000000 0.000000 6.437272 28.696204 2.570438
-2.723871 18.192861 6.695980 -177.794449 -1.307303 176.209371 0.000000 0.000000 0.000000 -20.264955 -6.916494 1.509853 1.588903 7.951408 22.566693 0.679863 2.379461 -16.615808 0.344213 -3.769680 -10.429576 0.000000 0.000000 0.000000 18.470194 5.305258 1.188260 -1.729322 -8.277875 23.561335 -0.516002 -10.474436 -21.145534 -0.052002 -1.472026 4.048631 -4.417400 1.228388 17.531931 3.845904 0.980664 -1.037632 6.547623 0.812512 -11.206274 -1.320733 3.129599 -7.442633 -6.375352 4.014919 27.047477 -1.743462 0.123740 9.902657 0.000000 0.000000 0.000000 4.689736 14.364029 -12.776071 26.759877 -37.949279 9.351105 13.105907 1.836157 -51.568567 0.000000 0.000000 0.000000 -7.125000 0.000000 0.000000 -60.888635 75.664895 47.314197 0.000000 0.000000 0.000000 -35.002372 2.619944 -73.468165 -41.988459 -49.204806 -19.931806 -17.879070 -75.360051 -1.107726 0.000000 0.000000 0.000000 7.125000 0.000000 0.000000 6.761159 28.788503 2.686290
-2.724100 18.191807 6.695414 -177.792499 -1.278603 176.221998 0.000000 0.000000 0.000000 -20.274454 -6.961601 1.516952 1.593772 7.962958 22.601744 0.682979 2.398914 -16.660797 0.326854 -3.673753 -10.160671 0.000000 0.000000 0.000000 18.445845 5.226626 1.144538 -1.729679 -8.278758 23.564054 -0.517794 -10.375240 -21.064193 -0.047399 -1.403475 3.859765 -4.473557 1.188544 17.437518 3.861837 0.916178 -0.968218 6.612567 0.777910 -11.065386 -1.663355 2.672345 -7.172383 -6.355569 3.388723 26.707315 -1.735568 -0.176093 9.702032 0.000000 0.000000 0.000000 4.600061 14.413706 -12.717875 26.820060 -38.007074 9.388156 12.866566 1.800482 -52.009580 0.000000 0.000000 0.000000 -7.125000 0.000000 0.000000 -62.654593 75.737287 48.957815 0.000000 0.000000 0.000000 -35.033691 2.365970 -73.727831 -41.891625 -49.151497 -19.858580 -17.578130 -74.712375 -1.068942 0.000000 0.000000 0.000000 7.125000 0.000000 0.000000 6.996928 28.829043 2.774782
-2.726749 18.190755 6.693814 -177.806050 -1.255209 176.213265 0.000000 0.000000 0.000000 -20.327159 -7.020131 1.576975 1.594853 7.965559 22.609598 0.687511 2.452168 -16.739194 0.312181 -3.591857 -9.931097 0.000000 0.000000 0.000000 18.380604 5.093553 1.098444 -1.734770 -8.290398 23.599560 -0.527221 -10.219146 -21.002250 -0.041153 -1.308962 3.599393 -4.485407 1.149192 17.421852 3.863395 0.859004 -0.927289 6.635413 0.747306 -11.001814 -1.987725 2.259317 -7.031569 -6.270114 2.818433 26.485423 -1.702703 -0.448214 9.573337 0.000000 0.000000 0.000000 4.522878 14.515243 -12.695024 26.875344 -38.060071 9.422189 12.724864 1.836173 -52.385183 0.000000 0.000000 0.000000 -7.125000 0.000000 0.000000 -64.141540 75.813157 50.371221 0.000000 0.000000 0.000000 -35.046630 2.290678 -73.759818 -41.784446 -49.092307 -19.777505 -17.373628 -74.439050 -1.239253 0.000000 0.000000 0.000000 7.125000 0.000000 0.000000 7.144274 28.651825 2.864409
-2.729117 18.189487 6.693925 -177.871279 -1.249752 176.217646 0.000000 0.000000 0.000000 -20.426376 -7.061971 1.599149 1.595417 7.967007 22.613756 0.689096 2.493115 -16.778455 0.321111 -3.642290 -10.072469 0.000000 0.000000 0.000000 18.256589 4.963599 1.021392 -1.742410 -8.307671 23.652409 -0.541331 -10.008964 -20.934827 -0.043123 -1.339072 3.682266 -4.536071 1.126894 17.438732 3.844787 0.812754 -0.857060 6.654955 0.721942 -10.925774 -2.343354 1.856324 -7.252586 -6.146365 2.291110 26.488124 -1.651338 -0.712714 9.598518 0.000000 0.000000 0.000000 4.468647 14.484697 -12.699399 26.868759 -38.053715 9.418069 12.673728 1.966580 -52.655795 0.000000 0.000000 0.000000 -7.125000 0.000000 0.000000 -65.195032 75.882386 51.396063 0.000000 0.000000 0.000000 -34.991820 2.220605 -73.693341 -41.754538 -49.075699 -19.754897 -17.169905 -74.362483 -1.523194 0.000000 0.000000 0.000000 7.125000 0.000000 0.000000 7.283102 28.357011 2.971972
-2.728914 18.187755 6.697374 -177.936638 -1.241934 176.237290 0.000000 0.000000 0.000000 -20.483282 -7.039162 1.549680 1.598022 7.973272 22.632783 0.688731 2.459895 -16.757079 0.328251 -3.682430 -10.184856 0.000000 0.000000 0.000000 18.161192 4.922021 0.924531 -1.752547 -8.330356 23.722040 -0.552458 -9.865474 -20.905249 -0.051939 -1.470339 4.043942 -4.604738 1.129995 17.506086 3.821545 0.795138 -0.798994 6.673388 0.713280 -10.897148 -2.668739 1.466588 -7.400798 -6.038523 1.783340 26.412673 -1.606854 -0.959495 9.585403 0.000000 0.000000 0.000000 4.471887 14.456535 -12.794380 26.848912 -38.034661 9.405829 12.397067 1.840622 -52.621493 0.000000 0.000000 0.000000 -7.125000 0.000000 0.000000 -65.193558 75.764472 51.268776 0.000000 0.000000 0.000000 -34.899425 2.270862 -73.598234 -41.787929 -49.094239 -19.780169 -16.930658 -74.301199 -1.590637 0.000000 0.000000 0.000000 7.125000 0.000000 0.000000 7.463110 28.287746 3.058974
